<?xml version="1.0" encoding="UTF-8"?>
<svg width="800px" height="400px" viewBox="0 0 800 400" xmlns="http://www.w3.org/2000/svg">
  <!-- Classroom background -->
  <rect x="0" y="0" width="800" height="400" fill="#f8f9fa" />
  
  <!-- Wall -->
  <rect x="0" y="0" width="800" height="300" fill="#e9ecef" />
  
  <!-- Floor -->
  <rect x="0" y="300" width="800" height="100" fill="#dee2e6" />
  
  <!-- Blackboard -->
  <rect x="200" y="30" width="400" height="200" fill="#212529" />
  <rect x="210" y="40" width="380" height="180" fill="#343a40" stroke="#495057" stroke-width="2" />
  
  <!-- Teacher's desk -->
  <rect x="350" y="250" width="120" height="70" fill="#6c757d" />
  <rect x="350" y="280" width="120" height="40" fill="#495057" />
  
  <!-- Student desks -->
  <g>
    <!-- First row -->
    <rect x="100" y="330" width="70" height="50" fill="#6c757d" />
    <rect x="180" y="330" width="70" height="50" fill="#6c757d" />
    <rect x="260" y="330" width="70" height="50" fill="#6c757d" />
    <rect x="340" y="330" width="70" height="50" fill="#6c757d" />
    <rect x="420" y="330" width="70" height="50" fill="#6c757d" />
    <rect x="500" y="330" width="70" height="50" fill="#6c757d" />
    <rect x="580" y="330" width="70" height="50" fill="#6c757d" />
    
    <!-- Chairs -->
    <rect x="115" y="380" width="40" height="10" fill="#495057" />
    <rect x="195" y="380" width="40" height="10" fill="#495057" />
    <rect x="275" y="380" width="40" height="10" fill="#495057" />
    <rect x="355" y="380" width="40" height="10" fill="#495057" />
    <rect x="435" y="380" width="40" height="10" fill="#495057" />
    <rect x="515" y="380" width="40" height="10" fill="#495057" />
    <rect x="595" y="380" width="40" height="10" fill="#495057" />
  </g>
  
  <!-- Windows -->
  <rect x="50" y="50" width="100" height="120" fill="#adb5bd" />
  <rect x="60" y="60" width="80" height="100" fill="#e9ecef" />
  <line x1="100" y1="60" x2="100" y2="160" stroke="#ced4da" stroke-width="2" />
  <line x1="60" y1="110" x2="140" y2="110" stroke="#ced4da" stroke-width="2" />
  
  <rect x="650" y="50" width="100" height="120" fill="#adb5bd" />
  <rect x="660" y="60" width="80" height="100" fill="#e9ecef" />
  <line x1="700" y1="60" x2="700" y2="160" stroke="#ced4da" stroke-width="2" />
  <line x1="660" y1="110" x2="740" y2="110" stroke="#ced4da" stroke-width="2" />
  
  <!-- Small decorations on blackboard -->
  <circle cx="250" cy="70" r="5" fill="#f8f9fa" /> <!-- Chalk dot -->
  <line x1="300" y1="100" x2="380" y2="100" stroke="#f8f9fa" stroke-width="2" /> <!-- Chalk line -->
  <line x1="320" y1="120" x2="420" y2="120" stroke="#f8f9fa" stroke-width="2" /> <!-- Chalk line -->
  <line x1="350" y1="140" x2="450" y2="140" stroke="#f8f9fa" stroke-width="2" /> <!-- Chalk line -->
  <line x1="330" y1="160" x2="400" y2="160" stroke="#f8f9fa" stroke-width="2" /> <!-- Chalk line -->
  
  <!-- Clock on wall -->
  <circle cx="400" cy="15" r="10" fill="#f8f9fa" stroke="#343a40" stroke-width="1" />
  <line x1="400" y1="15" x2="400" y2="8" stroke="#343a40" stroke-width="1" />
  <line x1="400" y1="15" x2="405" y2="15" stroke="#343a40" stroke-width="1" />
</svg>